<svg version="1.1" viewBox="0 0 1940 1880" width="32" height="32" xmlns="http://www.w3.org/2000/svg">
<path transform="translate(0)" d="m0 0h1940v1880h-1940z"/>
<path transform="translate(977,77)" d="m0 0 9 1 25 7 31 9 25 7 31 9 34 9 41 12 27 8 21 5 3 3-4 2h-4v2l10-2 8-1 252 72 17 5v3h-2l1 2 7-2 9 1 24 7 36 10 56 16 54 15 28 8 55 16 35 10 12 3v2l-6 2v2l2 1-2 3 7-4h4v18l-2 16-2 26-2 12-2 29-2 12-2 30-2 10-2 32-2 10-2 30-1 2-1 9-2 30-5 50-1 3-1 20-1 9-3 13-3 4 3 1-1 26-2 12-2 28-2 11-2 29-2 12-2 32-2 11-2 30-2 10-2 30-3 32-5 52-2 17-2 3-6 2-4 3-12 6-17 10-19 11-14 8-15 9-19 11-8 5-9 5-24 14-15 9-11 6-19 11-26 15-4 2-3 35-2 38-2 21-2 37-2 20-2 40-2 20-2 33-2 19-2 41-1 10 5-1-1 2-5 1-1 3-6 4h-2v2l-11 7-10 7-11 7-3-1 17-11 12-8 11-8 2-49 3-36 2-33 2-22 2-37 2-24 1-23 3-32 1-23 3-33h-3l-15 9-12 7-11 6-16 10-11 6-24 14-13 8-9 5-24 14-14 8-15 9-28 16-19 11-16 9-22 13-2 60-1 38-2 36-2 78-2 28-1 20-1 49-1 17 5-2 4-2-4 5-8 3-5 5-13 9-33 22-6 2-36 24-3 1-1 3-8 4-17 11-8 5-1 2-5 2-20 13-4 3h-2v2l-5 2-99 66-4 3h-2l-2 4h-5l-1-1v-35l-1 22h-1l-1-328-8-5-11-6-22-13-20-12-23-13-30-18-16-9-15-9-9-5-10-6-14-8-15-9-9-5-21-12-13-8-11-6-15-9-19-11-5-3v-2h-3l3 54 1 25v28l-2 1-1-9-2-58-2-41-3-4-11-6-16-9-27-16-18-10-13-8-17-10-9-5-13-8-11-6-21-13-12-6-13-8-14-8-10-6-18-10-9-6-8-4-11-6 1 4 14 196 6 93v19h-5l2-1-4-65-4-62-1-10-2-37-3-39-7-99-4-4-26-15-18-11-9-5-24-14-15-9-9-5-69-40-20-12-11-6-13-8-7-3 2-1-1-3 6 2 15 9 12 6 24 15 12 6 18 11 15 9 14 8 22 13 24 14 15 9 18 10 13 8 16 9-4-50-3-44-1-9-3-51-4-59-4-54-1-8-4-67-8-5-21-10-19-10-21-10-19-10-138-69-4-3h2v-2l-3-1 3-1 17 8 96 48 19 10 25 13 19 10 52 26-4-45-3-46-2-33-3-38v-22l-1-3-3-41v-7l2-3 1 4 2 29v10l1 3 6 84 7 108 2 3 42 20 19 10 160 80 23 12 19 10-3-54-3-92-2-60v-8l2-4 1 4 1 25v32l1 6 2 40 3 86 1 22 2 6 4 2v2l7 1 13 7 7 3 17 8 17 9 19 9 19 10 14 7 7 3 1 2 7 2 1 2 7 2v3l-6-2-19-9-17-9-23-11-28-14-21-10-19-10-8-3v16l2 55 2 42v36l-2 2-1-11-2-57-3-55-1-33-9-3-208-104-25-12-15-8-7-3 5 60 4 54 3 47 5 69 7 108 2 8 12 5 41 24 19 11 29 17 19 11 29 17 19 11 20 12 21 12 24 14 16 9 3 1-3-81-2-49v-42l2 1 2 39 2 64 2 55 1 19 6 2 12 6 24 14 26 15 24 14 17 10 26 15 15 9 26 15 17 10 14 8 14 9 11 6 12 7 17 10 7 4 16 9 4 1v-372l-5-5-16-8-14-8-14-7-17-9-22-11 3-1 4 1v2l9 3 28 14 7 3 25 12 10 5 2-1v-417l-6-1-29-12-53-22-25-10-26-11-30-12-23-9-9-4-26-11-15-6-18-7-9-4-21-9-22-9-6-1 1 15 1 32 2 32 1 24v20h-2l-1-8-1-39-4-68-1-10-10-5-19-8-13-5-19-8-32-13-29-12-27-11-24-10-21-9-14-5-14-6-9-4-21-8-11-5-11-4 6 85 2 31v7l-2 3-4-49-3-41-1-20-2-19-11-3-13-6-13-5-38-16-32-13-51-21-20-8-26-11-5-2v-3l-1-3-6-2-20-8-1-3 21-5 16-5 82-23 80-23 49-14 39-11 23-6 32-10 39-11 26-7 18-5 20-6 36-10 35-10 67-19 15-4 23-7 165-47 31-9z" fill="#020D09"/>
<path transform="translate(136,320)" d="m0 0 10 3 34 14 26 11 35 14 29 12 32 13 67 28 8 3 2 10 1 9 3 48 3 40 2 19-1-28-4-54-2-28v-13l11 3 19 8 13 5 9 4 24 10 13 5 24 10 32 13 43 18 30 12 14 6 13 5 19 8 10 5 1 1 3 42 2 38 1 45h2l-3-63-1-13-1-32v-15h6l24 10 19 8 17 7 25 10 19 8 15 6 11 5 28 11 27 11 19 8 27 11 22 9 24 10 32 13 3 1 1 2v415l-3 2-16-8-21-10-13-6-5-3-7-3-8-4-9-4v-2h-5l17 9 19 9 12 7 11 6 16 8 9 5 3 4v370l-1 2-6-1-14-8-9-5-17-10-13-8-11-6-14-9-11-6-26-15-139-81-17-10-11-5-1-2-2-45-2-54-2-59-1-17v41l4 101v29l-5-1-23-13-29-17-9-5-18-11-14-8-24-14-14-8-15-9-24-14-14-8-17-10-26-15-14-8-7-3-2-8-8-121-6-85-4-57-5-64v-11l7 2 19 10 21 10 19 10 21 10 19 10 21 10 19 10 21 10 19 10 21 10 19 10 23 11 15 7 1 3 2 49 3 61 1 32 1 9v-36l-3-65-1-32v-16l2-1 9 4 19 10 25 12 26 13 19 9 19 10 21 10 1-1-7-3v-2l-7-1-1-3-6-1-5-3-32-16-17-9-16-8-19-9-15-7-6-3-4-1-1-2-5-3-1-5-2-46-2-62-2-40-1-13v-25l-1-25h-1l1 45 2 49 2 66 2 39v15l-6-2-38-20-17-9-23-11-17-9-23-11-17-9-23-11-17-9-23-11-17-9-42-20-3-4-8-122-5-70-1-6-1-23-1-13-1-1 1 23 2 25 1 4v21l3 38 2 33 4 57 2 24v10l-5-1-19-10-32-16-19-10-54-28-78-39-21-10-5-2-2-8-7-73-10-104-8-81-6-63-2-18z" fill="#008208"/>
<path transform="translate(431,1152)" d="m0 0 4 1 12 7 11 6 17 10 11 6 10 6 11 7 11 6 16 9 20 12 28 16 22 13 15 9 11 6 20 12 29 17 5 3 2 3 2 41 2 58 1 8v-28l-3-65v-14h3v2l5 2 21 12 16 10 10 5 13 8 28 16 11 7 11 6 10 6 9 5 7 4 15 9 16 9 15 9 22 13 12 7 11 6 25 15 29 17 1 1v335l-1 6-5-2-51-34-16-10-20-13-78-52-29-19-32-21-22-14-20-13-4-4-1-16-2-72-3-81-1-5v18l2 59 2 68v27l-8-4-43-29-27-18-16-10-21-14-22-14-69-46-17-11-20-13-2-3-5-84-12-171-4-54z" fill="#008308"/>
<path transform="translate(1819,320)" d="m0 0h4v18l-2 16-2 26-2 12-2 29-2 12-2 30-2 10-2 32-2 10-2 30-1 2-1 9-2 30-5 50-1 3-1 20-1 9-3 13-3 4 3 1-1 26-2 12-2 28-2 11-2 29-2 12-2 32-2 11-2 30-2 10-2 30-3 32-5 52-2 13-4 3-9 4-24 13-15 9-41 24-26 15-17 10-82 48-4 2h-3v-9l2-22 1-5 2-37 2-20 3-49 1-6 3-53 1-7 2-40 2-19 3-52 2-22 7-4 30-15 23-11 19-10 26-14 17-9 16-8 40-21 16-8 28-13 5-3 1-2-19 9-20 9-19 10-168 84-2-1v-9l3-25 3-49 1-7 3-49 1-7 2-42 2-17 3-52 1-7 2-36 2-24 2-46 1-4 15-8 45-18 17-7 22-9 31-13 13-5 35-15 13-5 22-9h2v-2l8-2 5-1v-2l7-3z" fill="#FD1515"/>
<path transform="translate(1260,316)" d="m0 0 22 6 31 10 29 10 26 7 41 14 30 9 17 5 38 13 22 7 18 5 21 7 4 2 9 2 3 2-1 3-15 7-27 11-18 8-14 5-14 6-20 8-24 10-16 7-14 5-14 6-29 12-14 6-13 5-22 9-12 5-9 3-10 5-19 8-16 6-36 15-16 7-14 5-14 6-17 7-21 9-16 6-14 6-29 12-14 6-13 5-22 9-26 11-16 6-9-1-11-5-35-14-21-9-40-16-19-8-16-7-40-16-24-10-14-6-23-9-20-8-23-10-16-7-6-3-1-2 15-5 5-2 8-2 4-2 8-2 9-4 16-6 15-5 5-2 23-8 13-5 9-3 37-13 10-4 9-3 20-7 25-9 21-7 10-4 20-7 28-10 6-1 12 3 29 10 17 7 36 12 20 8 36 12 10 4 17 6 19 7 12 4 6 3 8 2 16 6 17 6 9 3 6 3 10 3 9 3 16 6 2 1h7l-41-14-18-7-27-9-35-13-32-11-24-9-29-10-13-5-46-16-21-8-21-7v-3l8-4 16-6 33-11 18-7 24-8 19-7 16-6 21-7 24-9 11-4 9-3 20-7 28-10 16-6z" fill="#E3E4E4"/>
<path transform="translate(977,77)" d="m0 0 9 1 25 7 31 9 25 7 31 9 34 9 41 12 27 8 21 5 3 3-8 3-18 6-33 10-68 22-33 10-31 10-38 12-13 4-8-1-19-6-30-9-54-18-19-5-45-15-31-9-37-12h-4l30 10 30 9 31 10 34 11 18 5 36 12 35 11 18 5 7 3-3 3-25 8-33 10-31 10-32 10-31 10-32 10-15 5-17 5-22 7-21 7-10 3-7 1-18 7-82 26-16 5-37 12-42 13-25 8-18 6-23 7-19 6-20 7-11 3-9-1-30-12-19-8-21-9-50-20-21-9-40-16-21-9-24-10-9-4v-2l21-5 16-5 82-23 80-23 49-14 39-11 23-6 32-10 39-11 26-7 18-5 20-6 36-10 35-10 67-19 15-4 23-7 165-47 31-9z" fill="#E2E3E3"/>
<path transform="translate(1297,536)" d="m0 0 3 3-1 26-2 23-2 73-2 34-2 70-2 35-2 80-1 13-1 32-1 7-28 14-23 11-214 107-19 10-11 6h-6v-414l5-4 16-6 16-7 16-6 21-9 16-6 8-4 25-10 17-7 22-9 31-13 16-6 21-9 32-13 29-12z" fill="#FE1615"/>
<path transform="translate(977,228)" d="m0 0h8l29 10 26 7 41 14 22 7 21 6 11 4 17 5 26 9 18 5 20 6 30 10 7 3-1 3-14 6-63 22-29 11-30 10-13 5-17 6-11 4-20 7-36 13-20 7-16 6-5 2-7 2-18 7-24 8-33 12-20 7-24 9-21 7-24 9-17 6-50 18-20 7-14 5-10 4-26 9-10 3-5-1-20-8-24-10-14-6-23-9-31-13-14-6-23-9-20-8-23-10-40-16-36-15-2-2 9-3 7-3 7-2 3-2 9-2 7-2 39-13 6-1 3-2 9-2 4-2 8-2 29-9 24-8 11-3 36-12 17-5 28-9 17-5 31-10 6-2 7 1 36 12 16 6 9 3 31 11 12 4 12 5 37 13 16 6 41 14 10 4 19 7 22 7 8 3h2l-9-4-30-10-23-9-36-12-20-8-33-11-26-10-35-12-24-9-32-11-3-3 11-3 19-6 5-2 11-3 29-9 15-5 8-2 4-2 8-2 24-8 30-9 15-5 17-5 28-9 19-6 17-5z" fill="#E3E4E4"/>
<path transform="translate(1281,939)" d="m0 0h3v14l-1 28-2 32-2 72-2 35-1 49-2 42-1 17-2 67-7 6-23 13-26 15-17 10-19 11-15 9-21 12-22 13-24 14-14 8-15 9-26 15-21 12-16 10-14 8-6 2-2-1v-372l4-4 25-12 32-16 23-11 118-59 17-9 32-16 23-11 19-10z" fill="#FE1615"/>
<path transform="translate(1575,422)" d="m0 0h2l-1 38-2 23-1 10-2 35-2 22-2 37-2 20-2 38-2 21-2 37-2 20-2 39-3 35-2 3-23 11-19 9-180 90-23 11-14 7h-3v-10l2-37 1-11 2-77 2-31 2-72 1-22 1-10 2-72 2-36v-16l10-5 25-10 11-5 20-8 31-13 16-6 21-9 20-8 31-13 13-5 14-6 34-14 20-8z" fill="#FE1615"/>
<path transform="translate(1266,1304)" d="m0 0h4v15l-1 15-2 71-2 35-1 57-3 51-2 80-5 5-87 58-3 1-1 3-8 4-17 11-8 5-1 2-5 2-20 13-4 3h-2v2l-5 2-99 66-8 5-3-1v-340l4-4 16-8 23-13 9-6 11-6 14-8 41-24 26-15 15-9 28-16 20-12 21-12 16-10 11-6 26-15z" fill="#FD1515"/>
<path transform="translate(1549,804)" d="m0 0h2l1 6-3 30-2 33-2 24-2 35-2 22-2 39-2 21-2 34-2 22-2 37-3 38-4 4-22 13-23 13-24 14-144 84-27 15-6 4h-3v-13l2-58 1-20 1-9 2-79 2-35 2-72 2-37 1-33 8-5 32-16 17-9 23-11 160-80 19-10z" fill="#FE1615"/>
<path transform="translate(1525,1152)" d="m0 0 3 2-3 33-1 23-3 32-2 38-2 22-2 37-2 21-2 34-2 23-2 49-15 11-24 16h-2l-1 3-7 3-12 8-23 15-7 5h-2v2l-5 2-11 7-2 3-5 2-5 3-2 3-5 2-60 40-17 11-14 9-16 10-5 4h-4v-17l1-49 2-38 1-10 2-78 2-36 2-73 1-25 9-6 19-11 11-6 49-28 20-12 21-12 15-9 48-28 27-16 18-10z" fill="#FD1515"/>
<path transform="translate(171,685)" d="m0 0 5 1 15 8 23 11 104 52 19 10 21 10 19 10 23 11 5 4 4 67 3 34 4 55 4 62 1 21 3 36 4 57v10l-6-2-17-10-13-8-11-6-24-14-15-9-24-14-14-8-13-8-22-13-11-6-13-8-16-9-18-10-8-5-2-12-11-113-9-93-8-82-2-18z" fill="#008308"/>
<path transform="translate(203,1019)" d="m0 0 7 2 16 10 12 6 18 11 26 15 22 13 23 13 25 15 23 13 5 3 18 11 28 16 3 4 8 115 3 38 1 22 3 38 2 34 3 47v18l-4-1-15-10-22-14-81-54-29-19-15-10-17-11-24-15-8-6-2-3-4-37-13-135-9-92-3-31z" fill="#008308"/>
<path transform="translate(1753,1020)" d="m0 0 3 1v11l-6 60-1 3-2 30-2 10-2 31-4 43-2 10-2 31-2 18-1 3-3 43-3 7-8 7-11 7-66 44-23 15-14 9-20 13-4 3h-2v2l-5 2-42 28-11 7-6 4h-3l1-36 2-28 1-6 3-47 1-6 2-40 2-20 3-51 1-7 3-53 2-20 24-14 18-10 16-10 10-5 13-8 28-16 15-9 26-15 10-6 26-15 21-12 9-5z" fill="#FD1515"/>
<path transform="translate(977,228)" d="m0 0h8l29 10 26 7 41 14 22 7 21 6 11 4 17 5 26 9 18 5 20 6 30 10 7 3-1 3-14 6-63 22-29 11-30 10-13 5-17 6-11 4-20 7-36 13-20 7-16 6-5 2-2-1v-2l-5-1-11-4-34-12-15-6-36-12-20-8-33-11-26-10-35-12-24-9-32-11-3-3 11-3 19-6 5-2 11-3 29-9 15-5 8-2 4-2 8-2 24-8 30-9 15-5 17-5 28-9 19-6 17-5z" fill="#E2E3E3"/>
<path transform="translate(1509,228)" d="m0 0 9 1 24 7 36 10 56 16 54 15 28 8 55 16 35 10 12 3v2l-17 8-30 12-38 16-17 7-16 6-14 6-17 7-26 11-13 5-20 8-24 10-9 3-8-3-40-13-23-7-43-14-32-10-17-5-49-16-24-7-72-24-2-3 11-4 9-3 10-3 23-8 13-5 9-3 20-7 25-9 21-7 21-8 29-10 25-9 19-7z" fill="#E3E4E4"/>
<path transform="translate(1229,148)" d="m0 0 9 1 24 7 224 64 17 5v3l-18 6-36 13-59 21-27 10-40 14-21 8-33 11-4 2h-5l-1 2-2-1v-2l-9-2-47-15-24-7-37-12-24-8-27-8-42-14-40-12-20-7v-3l52-16 5-2 8-2 25-8 39-12 12-4 25-8 44-14 17-5 7-3z" fill="#E3E4E4"/>
<path transform="translate(977,77)" d="m0 0 9 1 25 7 31 9 25 7 31 9 34 9 41 12 27 8 21 5 3 3-8 3-18 6-33 10-68 22-33 10-31 10-38 12-13 4-8-1-19-6-30-9-54-18-19-5-45-15-31-9-37-12-6-1 1-2 41-12 165-47 29-8z" fill="#E3E4E4"/>
<path transform="translate(1581,420)" d="m0 0 1 4-2 46-3 38-1 22-2 23-2 36-2 17-2 42-2 22-2 34-2 21-2 35-3 25v9l19-9 136-68 17-9 23-11 19-9 11-5h2l-2 4-21 10-20 9-20 11-14 7-19 10-15 8-16 8-24 13-21 11-23 11-32 16-3 38-2 36-2 19-2 40-2 23-2 37-2 18-2 37-2 20-2 37-4 36 14-7 19-11 15-9 26-15 17-10 24-14 26-15 22-13 17-10 16-9 19-11 9-3 1 3-2 3-6 2-4 3-12 6-17 10-19 11-14 8-15 9-19 11-8 5-9 5-24 14-15 9-11 6-19 11-26 15-4 2-3 35-2 38-2 21-2 37-2 20-2 40-2 20-2 33-2 19-2 41-1 10 5-1-1 2-5 1-1 3-6 4h-2v2l-11 7-10 7-11 7-3-1 17-11 12-8 11-8 2-49 3-36 2-33 2-22 2-37 2-24 1-23 3-32 1-23 3-33h-3l-15 9-12 7-11 6-16 10-11 6-24 14-13 8-9 5-24 14-14 8-15 9-28 16-19 11-16 9-22 13-2 60-1 38-2 36-2 78-2 28-1 20-1 49-1 17 5-2 4-2-4 5-8 3-5 5-13 9-33 22-3-1 51-34 1-2 2-80 3-51 1-57 2-35 2-71 2-30-10 4-24 14-22 13-41 24-24 14-14 8-15 9-28 16-20 12-19 11-14 8-22 13-18 10-14 7-1 2v340l4 1-1 1h-5l-1-38v-275l1-31 1-4-1-1-1-68v-727l4-6h6l-4 3-3 2-1 414 8-2 27-14 19-10 200-100 23-11 22-11h2l1-39 1-13 2-80 2-35 2-70 2-34 2-73 2-23 1-22h1v26l-2 28-2 68v11l2-31 1-54 2-26h1v21l-2 72-1 10-1 22-2 72-2 31-2 77-1 11-2 37-1 10 9-4 28-14 23-11 148-74 23-11 16-8 15-7 1-2 3-35 2-39 3-36 2-32 2-24 1-24 3-35 2-35 2-21 1-23 2-17 2-43 1-11-2-1 4 1zm-32 384-17 9-184 92-19 9-19 10-20 10-2 2-1 33-2 37-2 72-2 35-2 79-1 9-2 49-1 29v13l4-1 25-14 26-15 48-28 22-13 26-15 22-13 21-12 45-26 13-8 1-2 4-52 2-37 2-20 2-34 2-25 2-35 2-24 2-34 2-22 2-33 2-23-1-2zm-268 135-23 11-19 10-21 10-19 10-146 73-23 11-46 23-1 2v372l3 1 14-7 35-21 23-13 17-10 15-9 21-12 22-13 24-14 14-8 15-9 26-15 24-14 23-13 9-6 3-3 2-67 2-32 1-27 1-49 2-35 2-72 2-32 1-28v-14z" fill="#570716"/>
<path transform="translate(733,148)" d="m0 0 10 1 36 12 31 9 48 16 15 4 47 15 21 7 28 8 8 3 9-1 34-11 29-9 28-9 26-8 31-10 25-8 39-12 15-5 5 1-1 2-15 5-21 6-41 13-12 4-29 9-28 9-19 6-20 6-32 10-13 4 2 2 34 11 14 4 55 18 31 9 63 21 15 4 47 15 9 3v2l10-3 22-8 18-6 24-9 30-10 26-10 29-10 24-9 32-11 24-9 5-1v2h-2v2l-10 4-43 15-27 10-43 15-25 9-21 7-10 4-23 8-27 9-2 1 9 4 55 18 18 6 15 4 55 18 34 10 48 16 25 7 36 12 13 4 3 1 29-12 11-5 11-4 13-5 19-8 21-9 15-6 12-5 13-5 48-20 30-12 9-4 4 2-2 3h-2v2l-7 3h-6v2l-24 10-53 22-27 11-19 8-15 6-11 5-16 6-27 11-16 7-9 5-2 1v-2h-3v2l-13 5-20 8-22 9-24 10-27 11-19 8-15 6-11 5-16 6-27 11-19 8-23 9-11 5-22 9-2 1v16l-1 14-1 1-2 26-1 54-2 31-1 11h-1v-22l2-68 2-28v-30l-2-2-28 11-24 10-27 11-18 8-16 6-27 11-19 8-24 10-40 16-12 5-18 8-16 6-24 10-10 4h-3v-2l5-2h5v-2l4-3v-2l26-11 15-6 13-5 21-9 27-11 16-7 11-4 28-12 20-8 12-5 13-5 55-23 16-6 14-6 4-3 13-4 19-8 17-7 13-5 28-12 20-8 12-5 13-5 36-15 20-8 19-8 13-5 23-10 20-8 8-4v-2l-5-2-8-2-11-4-14-5-18-5-20-6-38-13-40-12-46-15-23-7-17-5-36-12-26-8-8-2-22 9-27 9-18 7-11 4-10 3-33 12-32 11-13 5-37 13-30 11-10 3-25 9-5 3 2 2 33 11 21 8 36 12 11 5 44 15 21 8 35 12 21 8 38 13 13 5 32 11 1 2h-8l-10-4-16-5-6-3-9-3-6-3-13-4-23-8-4-2-8-2-12-5-20-7-24-8-8-4-16-5-20-7-23-9-33-11-20-8-30-10-10-1-18 7-15 5-20 7-14 5-7 3-10 3-28 10-18 7-10 3-31 11-22 8-20 7-16 6-7 2-6 3-10 3-13 5-7 3-11 3-3 2-9 2-3 2-11 3h-7l4-2 26-9 12-4 32-12 48-17 17-6 21-8 20-7 29-10 23-9 21-7 24-9 30-10 5-3 10-2 12-5 21-8 24-8 24-9 21-7 15-6 15-5 26-9 30-11 76-27 6-3v-2l-31-10-17-6-26-7-38-13-13-4-19-6-18-5-38-13-40-12-27-9h-8l-27 9-17 5-33 10-27 9-17 5-32 10-12 4-11 3-3 2-8 2-25 8-17 5-13 4-7 2-24 8 12 5 29 10 30 11 35 12 21 8 29 10 21 8 35 12 27 10 24 8 9 4v1l-9-1-10-4-27-9-12-5-41-14-16-6-29-10-22-8-10-4-30-10-7-3-9-3-21-8-33-11-8 1-32 10-12 4-29 9-18 6-17 5-24 8-11 3-9 3-28 9-16 5-11 3-3 2-9 2-5 2-10 3-21 7-16 4-3 2-9 2-3 2-20 6-2 1v-4l20-6 11-4 13-4 25-8 16-5 31-10 55-17 36-12 42-13 28-9 30-10 8-3 11-2 20-7 18-6 17-5 29-9 50-16 29-9 31-10 38-12 20-6 11-4-4-2-16-5-27-8-38-13-23-7-17-5-37-12-23-7-29-9-24-8z" fill="#072906"/>
<path transform="translate(167,327)" d="m0 0 16 6 11 5 35 14 36 15 30 12 22 9 14 6 24 10 20 8 9 2v3l4 1 21 8 14 6 23 9 43 18 50 20 18 8 40 16 16 7 24 10 20 8 7 1 5 3 15 7 13 5 13 6 55 22 21 9 35 14 16 7 44 18 20 8 24 10 11 5 13 5 20 8 7 3 9-1 13-5 4-2 5 1-4 3h-2v2l-10 2v2l-7 2-2 4v421l-1 18h-1l-2-17-1-4v-421l-6-1-29-12-53-22-25-10-26-11-30-12-23-9-9-4-26-11-15-6-18-7-9-4-21-9-22-9-6-1 1 15 1 32 2 32 1 24v20h-2l-1-8-1-39-4-68-1-10-10-5-19-8-13-5-19-8-32-13-29-12-27-11-24-10-21-9-14-5-14-6-9-4-21-8-11-5-11-4 6 85 2 31v7l-2 3-4-49-3-41-1-20-2-19-11-3-13-6-13-5-38-16-32-13-51-21-20-8-26-11-5-2v-3z" fill="#0C0406"/>
<path transform="translate(1e3 1075)" d="m0 0 3 1-23 11-1 2-1 372 5-1 12-6 35-21 23-13 17-10 15-9 21-12 22-13 24-14 14-8 15-9 26-15 24-14 23-13 9-6 2-2 2-67 2-32 1-27h2v-33l1-9h1v52l-3 48-1 46-1 20 6-2 9-5 4-4 25-14 53-31 13-8 11-6 24-14 19-11 17-10 21-12 26-15 20-12 2 1-6 5-1 3-13 8-13 7-15 9-22 13-26 15-15 9-24 14-14 8-15 9-28 16-19 11-16 9-22 13-2 60-1 38-2 36-2 78-2 28-1 20-1 49-1 17 5-2 4-2-4 5-8 3-5 5-13 9-33 22-3-1 51-34 1-2 2-80 3-51 1-57 2-35 2-71 2-30-10 4-24 14-22 13-41 24-24 14-14 8-15 9-28 16-20 12-19 11-14 8-22 13-18 10-14 7-1 2v340l4 1-1 1h-5l-1-38v-275l1-31 1-4-1-1-1-68v-205l1-101 3-4 18-8z" fill="#640817"/>
<path transform="translate(1810,319)" d="m0 0 4 2-2 3h-2v2l-7 3h-6v2l-24 10-53 22-27 11-19 8-15 6-11 5-16 6-27 11-16 7-9 5-2 1v-2h-3v2l-13 5-20 8-22 9-24 10-27 11-19 8-15 6-11 5-16 6-27 11-19 8-23 9-11 5-22 9-2 1v16l-1 14-1 1-2 26-1 54-2 31-1 11h-1v-22l2-68 2-28v-30l-2-2-28 11-24 10-27 11-18 8-16 6-27 11-19 8-24 10-40 16-12 5-18 8-16 6-24 10-10 4h-3v-2l5-2h5v-2l4-3v-2l26-11 15-6 13-5 21-9 27-11 16-7 11-4 28-12 20-8 12-5 13-5 55-23 16-6 14-6 4-3 13-4 19-8 17-7 13-5 28-12 20-8 12-5 13-5 36-15 20-8 19-8 13-5 23-10 20-8 4-2 9-1 4-2v-2l29-12 11-5 11-4 13-5 19-8 21-9 15-6 12-5 13-5 48-20 30-12z" fill="#1C1F0B"/>
<path transform="translate(985,661)" d="m0 0h6l-4 3-3 2-1 414 8-2 27-14 19-10 200-100 23-11 22-11 6-1 1 2-1 36-2 37-2 72-2 35-2 79-1 9-2 49-1 29-1 13 11-6 4-1-3 3-8 5h-5v-20l1-46 3-48v-43l-1 33h-1v-49l2-35 2-72 2-32 1-28 1-14-12 5-19 10-19 9-19 10-162 81-23 11-20 10-9 3-16 7-3 3-1-90v-331z" fill="#430615"/>
<path transform="translate(1546,900)" d="m0 0h1v17l-1 22-2 17-2 39-2 20-2 35-2 22-2 52-2 18 14-7 19-11 15-9 26-15 17-10 24-14 26-15 22-13 17-10 16-9 19-11 9-3 1 3-2 3-6 2-4 3-12 6-17 10-19 11-14 8-15 9-19 11-8 5-9 5-24 14-15 9-11 6-19 11-26 15-4 2-3 35-2 38-2 21-2 37-2 20-2 40-2 20-2 33-2 19-2 41-1 10 5-1-1 2-5 1-1 3-6 4h-2v2l-11 7-10 7-11 7-3-1 17-11 12-8 11-8 2-49 3-36 2-33 2-22 2-37 2-24 1-23 3-32 1-23 3-33h-3l-5 3h-2l2-4 7-6 1-2 4-52 2-20 4-52 3-40 3-45 2-35z" fill="#3A0614"/>
<path transform="translate(971,227)" d="m0 0 1 2 2 1-24 8-17 5-33 10-27 9-17 5-32 10-12 4-11 3-3 2-8 2-25 8-17 5-13 4-7 2-24 8 12 5 29 10 30 11 35 12 21 8 29 10 21 8 35 12 27 10 24 8 9 4v1l-9-1-10-4-27-9-12-5-41-14-16-6-29-10-22-8-10-4-30-10-7-3-9-3-21-8-33-11-8 1-32 10-12 4-29 9-18 6-17 5-24 8-11 3-9 3-28 9-16 5-11 3-3 2-9 2-5 2-10 3-21 7-16 4-3 2-9 2-3 2-20 6-2 1v-4l20-6 11-4 13-4 25-8 16-5 31-10 55-17 36-12 42-13 28-9 30-10 8-3 11-2 20-7 18-6 17-5 29-9 50-16 29-9 31-10 38-12 20-6z" fill="#063107"/>
<path transform="translate(167,327)" d="m0 0 16 6 11 5 35 14 36 15 30 12 22 9 14 6 24 10 20 8 9 2v3l4 1 21 8 14 6 23 9v2l5 2 13 5 9 4 14 7 2 3-10-3-18-8-14-5-14-6-9-4-21-8-11-5-11-4 6 85 2 31v7l-2 3-4-49-3-41-1-20-2-19-11-3-13-6-13-5-38-16-32-13-51-21-20-8-26-11-5-2v-3z" fill="#070704"/>
<path transform="translate(937,646)" d="m0 0h8l14 6 12 5 5 2 9-1 13-5 4-2 5 1-4 3h-2v2l-10 2v2l-7 2-2 4v421l-1 18h-1l-2-17-1-4v-421l-6-1-29-12-7-3z" fill="#0E0A0C"/>
<path transform="translate(1581,420)" d="m0 0 1 4-2 46-3 38-1 22-2 23-2 36-2 17-2 42-2 22-2 34-2 21-2 35-3 14-2 14h-1v-26l2-39 3-36 2-32 2-24 1-24 3-35 2-35 2-21 1-23 2-17 2-43 1-11-2-1 4 1z" fill="#500716"/>
<path transform="translate(733,148)" d="m0 0 10 1 36 12 31 9 48 16 15 4 47 15 21 7 28 8 8 3 9-1 34-11 29-9 28-9 26-8 31-10 25-8 39-12 15-5 5 1-1 2-15 5-21 6-41 13-12 4-29 9-28 9-19 6-20 6-32 10-13 4 2 2 34 11 14 4 55 18 12 4v2l-7-1-43-14-14-5-26-7-29-10h-13l1-4-30-9-19-6-46-15-24-7-43-14-23-7-29-9-24-8z" fill="#062906"/>
<path transform="translate(1e3 1075)" d="m0 0 3 1-23 11-1 2-1 372 5-1 12-6 20-12 11-7h2l-1 3-8 4-5 4 9-5 2 1-13 8-18 10-14 7-1 2v340l4 1-1 1h-5l-1-38v-275l1-31 1-4-1-1-1-68v-205l1-101 3-4 18-8z" fill="#7F0919"/>
<path transform="translate(1273,1299)" d="m0 0h1v25l-2 73-2 36-2 78-2 28-1 20-1 49-1 17 5-2 4-2-4 5-8 3-5 5-13 9-33 22-3-1 51-34 1-2 2-80 3-51 1-57 2-35 2-71 2-30-4-1 5-1 1 1v11l-2 24-1 43v21l1-26 1-45z" fill="#7E0919"/>
<path transform="translate(1531,1148)" d="m0 0h1v13l-2 22-2 38-2 21-2 37-2 20-2 40-2 20-2 33-2 19-2 41-1 10 5-1-1 2-5 1-1 3-6 4h-2v2l-11 7-10 7-11 7-3-1 17-11 12-8 11-8 2-49 3-36 2-33 2-22 2-37 2-24 1-23 3-32h1v14l-2 28-2 36 2-24 2-31 2-28 2-30 2-25z" fill="#800A1A"/>
<path transform="translate(1250,1308)" d="m0 0 3 1-1 4-21 12-22 13-26 15-15 9-28 16-20 12-28 16-20 12-19 11-21 12-8 3-6 3 1-3 11-6 8-7 20-11 17-10 15-9 21-12 22-13 24-14 14-8 15-9 26-15 24-14z" fill="#700918"/>
<path transform="translate(1810,319)" d="m0 0 4 2-2 3h-2v2l-7 3h-6v2l-24 10-53 22-27 11-19 8-15 6-11 5-10 1-9 4h-2v2h-12l4-3 11-4 13-5 19-8 21-9 15-6 12-5 13-5 48-20 30-12z" fill="#17190A"/>
<path transform="translate(889,1042)" d="m0 0 7 1v2l9 3 28 14 7 3 25 12 10 5 3-1v7l1 1 1 9 1 360-3 3-1-370-5-5-16-8-14-8-14-7-17-9-22-11z" fill="#000D08"/>
<path transform="translate(1638,393)" d="m0 0h6l-4 3-28 11-21 9-11 6-2 1v-2h-3v2l-13 5-20 8-22 9-24 10-27 11-19 8-15 6-5 1v-2l18-8h2l1-3 9-3v-2l19-8 15-6 12-5 13-5 23-10 20-8 4-2 9-1 4-2v-2l29-12 4-2h15v-2z" fill="#122E0C"/>
<path transform="translate(1755,1015)" d="m0 0 2 3-2 3-6 2-4 3-12 6-17 10-19 11-14 8-15 9-19 11-8 5-9 5-24 14-15 9-11 6-13 8-2-1 9-6 2-2-9 5-2-1 13-8 26-15 17-10 24-14 26-15 22-13 17-10 16-9 19-11z" fill="#5F0817"/>
<path transform="translate(1299,543)" d="m0 0h1v26l-2 28-2 68v11l2-31 1-54 2-26h1v21l-2 72-1 10-1 22-2 72-2 31-2 77-1 11h-1v-27l1-65 3-42 1-40v-15l-1 14-2 65-2 33-1 36h-1v-40l2-35 2-70 2-34 2-73 2-23z" fill="#800A1A"/>
<path transform="translate(1457,464)" d="m0 0 3 1-9 4-4 4-14 5-3 1v3l-14 6-28 11-26 11-23 9-11 5-22 9-13 3-5 1-1-3 8-4 9-3 19-8 15-6 13-5 21-9 27-11 19-8 13-5z" fill="#043508"/>
<path transform="translate(167,327)" d="m0 0 16 6 11 5 35 14 36 15 30 12 22 9 14 6 19 8 1 2-5-1-9-4-9-3-4 1-17-7-30-12-19-8-21-9-16-6-22-9-26-11-5-2v-3z" fill="#0B0405"/>
<path transform="translate(1283,953)" d="m0 0h1v30l-1 14-2 70v13l1-23 1-41 2-31h1v21l-2 72-2 35-2 79-1 9-2 49-1 29-1 13 11-6 4-1-3 3-8 5h-5v-20l1-46 3-48v-43l-1 33h-1v-49l2-35 2-72 2-32z" fill="#800A1A"/>
<path transform="translate(1265,314)" d="m0 0 37 12 48 16 15 4 55 18 34 10 48 16 25 7 36 12 13 4 3 3-4 3h-7l2-4-5-2-8-2-11-4-14-5-18-5-20-6-38-13-40-12-46-15-23-7-17-5-36-12-29-9z" fill="#093108"/>
<path transform="translate(986,417)" d="m0 0 36 12 21 8 36 12 11 5 44 15 21 8 35 12 21 8 38 13 13 5 32 11 1 2h-8l-10-4-16-5-6-3-9-3-6-3-13-4-23-8-4-2-8-2-12-5-20-7-24-8-8-4-16-5-20-7-23-9-33-11-20-8-30-10z" fill="#082C09"/>
<path transform="translate(1278,1127)" d="m0 0h1v52l-3 48-1 46-1 20h5v2l-4 4h-2v17l-1 15-1 45-1 26-1 12h-1v-33l1-43 2-24v-11h-5v2l-11 6-4-1 1-3 15-9 3-3 2-67 2-32 1-27h2v-33z" fill="#3E0614"/>
<path transform="translate(446,442)" d="m0 0 5 1 26 11 12 5 50 20 18 8 40 16 16 7 17 7-2 2-9-3-9-1-16-7-32-13-29-12-27-11-16-7-5-4-1-2-4-1-7-3-9-4-13-5z" fill="#0C0506"/>
<path transform="translate(661,325)" d="m0 0 4 1-1 2-16 5-29 9-18 6-17 5-24 8-11 3-9 3-28 9-16 5-11 3-3 2-9 2-5 2-10 3-21 7-16 4-3 2-9 2-3 2-20 6-2 1v-4l20-6 11-4 13-4 25-8 16-5 31-10 55-17 36-12 42-13z" fill="#0A3A0B"/>
<path transform="translate(613,515)" d="m0 0 11 1 5 2 6 1 22 9 7 1 5 3 15 7 13 5 3 2v2l5 2 8 4v2l-10-3-21-9-17-7-6-1 1 15 1 32 2 32 1 24v20h-2l-1-8-1-39-4-68-1-10-10-5-19-8-13-5z" fill="#050704"/>
<path transform="translate(1266,1449)" d="m0 0h1v43l-1 21v26l-1 20-1 49-1 17 5-2 4-2-4 5-8 3-5 5-13 9-33 22-3-1 51-34 1-2 2-80 2-30 1-1 1-17 1-38z" fill="#590717"/>
<path transform="translate(1500,228)" d="m0 0 1 2h-2v2l-10 4-43 15-27 10-43 15-25 9-21 7-10 4-23 8-27 9-4 2-1 3-6-1 1-4 9-3 38-13 24-9 30-10 26-10 29-10 24-9 32-11 24-9z" fill="#053A07"/>
<path transform="translate(985,661)" d="m0 0h6l-4 3-3 2-1 414h6l-2 2-5-1-1-83v-331z" fill="#800A1A"/>
<path transform="translate(1782,683)" d="m0 0h2l-2 4-21 10-20 9-20 11-14 7-19 10-15 8-16 8-24 13-6 2 3-3 4-2-6 2-13 6-2-1 19-10 80-40 17-9 23-11 19-9z" fill="#7E0919"/>
<path transform="translate(453,228)" d="m0 0 10 1 16 6 19 7 32 11 21 8 38 13 21 8 35 12 16 6 31 11-4 2-30-10-20-8-38-13-23-9-33-11-27-10-29-10-24-9-11-4z" fill="#062D07"/>
<path transform="translate(1294,691)" d="m0 0 2 1v15l-1 40-3 42-2 115-1 14h-2v11h-1v-49l1-33 1-7 1-36 2-33 2-65z" fill="#3C0614"/>
<path transform="translate(1301,533)" d="m0 0 3 1v16l-1 14-1 1-2 26-1 54-2 31-1 11h-1v-22l2-68 2-28v-30l-2-2-28 11-24 10-10 3 2-4 12-4h5v-2l6-3 8-3h4l1-4h2v-2l10-4 7 1z" fill="#3F0615"/>
<path transform="translate(879,450)" d="m0 0h2v3l-22 8-13 5-10 3-31 11-22 8-20 7-16 6-7 2-6 3-10 3-13 5-7 3-11 3-3 2-9 2-3 2-11 3h-7l4-2 26-9 12-4 32-12 48-17 17-6 21-8 20-7 29-10z" fill="#0C470B"/>
<path transform="translate(1581,420)" d="m0 0 1 4-2 46-3 38-1 22-2 23-2 36-2 17-2 42-2 22-2 34-1 7h-1v-14l2-38 1-5 2-43 3-35 2-35 2-23 2-34 1-6 1-22v-19l-1 21h-1v-25l1-11-2-1 4 1z" fill="#800A1A"/>
<path transform="translate(1555,801)" d="m0 0h1v14l-2 24-2 36-2 19-2 40-2 23-2 37-2 18-2 37-2 20-2 37-1 5h-1v-17l2-34 2-24 2-34 2-21 1-25 2-17 3-53 2-22 2-34 2-27z" fill="#800A1A"/>
<path transform="translate(1213,150)" d="m0 0 5 1-1 2-15 5-21 6-41 13-12 4-29 9-28 9-19 6-10 2-3-2 32-10 42-13 21-7 25-8 39-12z" fill="#083109"/>
<path transform="translate(1058,386)" d="m0 0h5l-1 2-24 9-15 5-20 7-15 6-2 4h-10l-18 7-15 5-20 7-14 5-7 3-10 3-8 3h-3l1-3 17-6 38-14 30-10 5-3 10-2 12-5 21-8 24-8z" fill="#062506"/>
<path transform="translate(1250,1308)" d="m0 0 3 1-1 4-21 12-22 13-26 15-20 12-7 2-7 4-2-1 5-3 8-5 4-4 17-10 24-14 26-15z" fill="#580716"/>
<path transform="translate(1522,1149)" d="m0 0 2 1-6 5-1 3-13 8-13 7-15 9-22 13-19 11-2-1h-3l-9 6-6 3-6 2 3-3 26-15 17-10 21-12 26-15z" fill="#5F0817"/>
<path transform="translate(693,1446)" d="m0 0h1l2 37 2 58 2 72v15l-3-1-3-95-2-59v-18z" fill="#000E09"/>
<path transform="translate(1286,931)" d="m0 0 3 1-1 37-1 16h-2l-1 31-1 41-1 23-1 8h-1v-21l2-70 1-14 1-44-6 2h-7l1-4 10-5z" fill="#380614"/>
<path transform="translate(841,608)" d="m0 0 7 1 10 3 10 5 9 1 14 6 20 8 18 8 13 5v1l-9 1-15-6-29-12-25-10-23-10z" fill="#010402"/>
<path transform="translate(1638,393)" d="m0 0h6l-4 3-28 11-21 9-11 6-2 1v-2h-3v2l-13 5-20 8h-2l1-3 8-4h5l1-3h5l11-5-1-2 9-3v-2l29-12 4-2h15v-2z" fill="#1C240B"/>
<path transform="translate(1755,1015)" d="m0 0 2 3-2 3-6 2-4 3-12 6-17 10-31 18-10 3 4-4h3v-2l7-4 4-4 19-11 16-9 19-11z" fill="#510716"/>
<path transform="translate(1076,622)" d="m0 0h10l-2 2-10 4-12 5-18 8-16 6-24 10-10 4h-3v-2l5-2h5v-2l4-3v-2l26-11 15-6 2-1 11-1 9-4 8-3z" fill="#460714"/>
<path transform="translate(1136,596)" d="m0 0 3 1-4 4-3 1-1 3-17 7-25 10-12 1-1 2-17 7h-8l4-3 11-4 28-12 20-8 13-5z" fill="#035008"/>
<path transform="translate(255,364)" d="m0 0 10 3 30 12 22 9 14 6 19 8 1 2-5-1-9-4-9-3-4 1-17-7-30-12-12-6-5-4-5-3z" fill="#0D0506"/>
<path transform="translate(1810,319)" d="m0 0 4 2-2 3h-2v2l-7 3h-6v2l-24 10-9 4-12 2-8 4-5-1v2h-6l3-2 16-7 19-8 30-12z" fill="#012805"/>
<path transform="translate(1578,431)" d="m0 0h1v25l-1 22-2 18-2 38-2 23-2 34-2 20-2 2v-14l2-26 3-44 3-45 1-7 2-40z" fill="#250513"/>
<path transform="translate(1190,339)" d="m0 0h2l1 3-11 4-10 3-33 12-32 11-13 5-20 7-9 3-5-1 3-2 21-7 15-6 15-5 26-9 30-11z" fill="#063507"/>
<path transform="translate(1272,540)" d="m0 0 3 1-1 2h-2v2l-18 6v2l-17 5-2 4-24 10h-6l-9 4h-9l4-3 11-4 41-17 19-8z" fill="#014707"/>
<path transform="translate(971,227)" d="m0 0 1 2 2 1-24 8-17 5-33 10-27 9-17 5-4-1h3v-2l27-9 25-8 39-12z" fill="#0A2B09"/>
<path transform="translate(550,487)" d="m0 0 5 1 1 1 9 1 12 5 20 8 16 7 17 7-2 2-9-3-9-1-16-7-32-13-12-5z" fill="#0D0305"/>
<path transform="translate(1500,228)" d="m0 0 1 2h-2v2l-10 4-43 15-27 10-23 8h-4l1-3 28-10 34-12 24-9z" fill="#082007"/>
<path transform="translate(1546,900)" d="m0 0h1v17l-1 22-2 17-2 39-2 20-2 35-2 22-2 1v-16l3-36 3-40 3-45 2-35z" fill="#250513"/>
<path transform="translate(1457,464)" d="m0 0 3 1-9 4-4 4-14 5-3 1v3l-14 6-12 5-10 1-9 4-3-1v-2l36-15 13-5z" fill="#013E07"/>
<path transform="translate(406,426)" d="m0 0 5 1 35 14v2l5 2 13 5 9 4 14 7 2 3-10-3-18-8-14-5-14-6-9-4-10-4-4-5z" fill="#050404"/>
<path transform="translate(377,418)" d="m0 0 4 2 6 86 2 31v7l-2 3-4-49-3-41-1-20z" fill="#000E09"/>
<path transform="translate(937,646)" d="m0 0h8l14 6 12 5 5 2 9-1 13-5 4-2 5 1-4 3h-2v2l-10 2v2l-7 2-3 3-2 4-1-5-14-5-24-10-5-2z" fill="#080805"/>
<path transform="translate(1090,1403)" d="m0 0 1 2-7 6-21 12-11 7-11 6-9 5-8 3-6 3 1-3 11-6 8-7 20-11 12-7 10-4 3-2h3v-2z" fill="#540716"/>
<path transform="translate(989,228)" d="m0 0 7 1 27 9 14 4 55 18 12 4v2l-7-1-43-14-14-5-26-7-24-8z" fill="#072B07"/>
<path transform="translate(654,532)" d="m0 0 3 1v2h7v1h-5l1 15 1 32 2 32 1 24v20h-2l-1-8-1-39-4-68-1-10z" fill="#000D08"/>
<path transform="translate(1266,1449)" d="m0 0h1v43l-1 21v26l-2 41h-1l-1-32h-1v-18l1-12 1-1 1-17 1-38z" fill="#570716"/>
<path transform="translate(491,379)" d="m0 0 2 1 1 2-9 2-3 2-9 2-5 2-10 3-21 7-16 4-3 2-9 2-3 2-20 6-2 1v-4l20-6 11-4 13-4 25-8 16-5z" fill="#0C4A0B"/>
<path transform="translate(1680,372)" d="m0 0 4 1-1 3h-3v2l-7 3-8 2-9 4h-2v3l-6 3-10 1-9 4h-2v2h-12l4-3 11-4 13-5 19-8z" fill="#043808"/>
<path transform="translate(1197,493)" d="m0 0 9 2 25 9 20 7 19 7 24 8 1 2h-8l-10-4-16-5-6-3-9-3-6-3-13-4-23-8-4-2-6-1z" fill="#064309"/>
<path transform="translate(969,418)" d="m0 0 1 3-12 5-15 5-20 7-14 5-7 3-10 3-8 3h-3l1-3 17-6 38-14 30-10z" fill="#0C370A"/>
<path transform="translate(1553,808)" d="m0 0h1v13l-2 24-2 33-2 21-2 1v-15l1-8 1-37 3-30z" fill="#380614"/>
<path transform="translate(985,661)" d="m0 0h6l-4 3-3 2-1 130h-1l-1-32v-97z" fill="#7D0919"/>
<path transform="translate(703,315)" d="m0 0 13 5 29 10 30 11 21 7v3l-11-3-17-6-12-4-13-5-14-5-27-9z" fill="#063107"/>
<path transform="translate(1518,1312)" d="m0 0h1v13l-2 24-5 68-1 28-1 12-2 1v-14l2-39 2-21 3-41 2-28z" fill="#250513"/>
<path transform="translate(597,279)" d="m0 0 7 1 35 12 16 6 37 13-4 2-30-10-20-8-38-13z" fill="#072B07"/>
<path transform="translate(1498,389)" d="m0 0 24 7 17 5 37 12 3 3-4 3h-7l2-4-5-2-8-2-11-4-14-5-18-5-16-5z" fill="#0B390B"/>
<path transform="translate(1502,450)" d="m0 0 3 1-13 6-16 6-21 9-20 8-5 1v-2l18-8h2l1-3 9-3v-2l9-2v2l15-7 14-5z" fill="#25090E"/>
<path transform="translate(1037,206)" d="m0 0h5l-3 3-52 16 2 2-1 3-3-1h-13l1-5 13-2 34-11z" fill="#082A07"/>
<path transform="translate(1522,1149)" d="m0 0 2 1-6 5-1 3-13 8-13 7-8 5-8 2 4-6 25-14z" fill="#510716"/>
<path transform="translate(1213,150)" d="m0 0 5 1-1 2-15 5-21 6-28 9h-5v-2l11-4 39-12z" fill="#082708"/>
<path transform="translate(1294,691)" d="m0 0 2 1v15l-1 40-4 57h-1v-19l1-14 2-65z" fill="#250513"/>
<path transform="translate(1419,364)" d="m0 0 25 7 49 16 5 2v2l-7-1-35-12-20-6-18-5-1-2z" fill="#093B0A"/>
<path transform="translate(986,417)" d="m0 0 36 12 21 8 26 9 2 1v2l-9-2-26-9-20-8-30-10z" fill="#072F07"/>
<path transform="translate(1278,1127)" d="m0 0h1v52l-3 48-1 6h-1v-20l1-14 2-63z" fill="#250513"/>
<path transform="translate(1254,312)" d="m0 0h3v2h2v3l-14 6-50 18h-3l1-3 42-15 15-6 2-1z" fill="#073408"/>
<path transform="translate(1320,1268)" d="m0 0m-1 1v3l-4 4-10 6-11 6-16 9-2-1 3-1 2-4 8-5 4-4 18-10z" fill="#560716"/>
<path transform="translate(743,499)" d="m0 0 2 1-5 3-6 3-10 3-13 5-7 3-11 3-3 2-9 2-3 2-11 3h-7l4-2 26-9 12-4 32-12z" fill="#09590A"/>
<path transform="translate(1298,597)" d="m0 0h1v48l-2 31-1 11h-1v-22l2-67z" fill="#250513"/>
<path transform="translate(906,201)" d="m0 0 19 6 30 9 19 6 3 2h-8l-16-5-27-8-21-7z" fill="#0A2007"/>
<path transform="translate(1509,1405)" d="m0 0h1v17l-1 22v13l2-1v6l5-1-1 2-5 1-1 3-6 4h-2v2l-11 7-10 7-11 7-3-1 17-11 12-8 11-8 2-49z" fill="#800A1A"/>
<path transform="translate(1094,1737)" d="m0 0 2 1-4 4-10 6-10 7-11 7-10 7-33 22-14 9-2-1 10-7 81-54z" fill="#550716"/>
<path transform="translate(879,450)" d="m0 0h2v3l-22 8-13 5-10 3-17 6h-3v-2l20-8 33-11z" fill="#0E400C"/>
<path transform="translate(1432,1203)" d="m0 0 3 1-5 5-14 8-11 7-9 3-7 4-2-1 4-3 9-5 5-5 10-4 14-8z" fill="#450615"/>
<path transform="translate(908,389)" d="m0 0 5 1 30 11 24 8 9 4v1l-9-1-10-4-27-9-12-5-11-4z" fill="#0B2B09"/>
<path transform="translate(1400,1220)" d="m0 0 2 1-8 6-6 3 12-6 3 1-25 14-11 7-2-1 6-4h2v-2l-10 5-2-1 17-10z" fill="#620817"/>
<path transform="translate(1394,493)" d="m0 0h6l-4 3-18 7-4 2-12 2-6 3-2-1v-2l18-8 7-3 6 1z" fill="#004307"/>
<path transform="translate(1638,393)" d="m0 0h6l-4 3-28 11-12 5h-3l1-4h5v-2l5-4 4-2h15v-2z" fill="#22210C"/>
<path transform="translate(733,148)" d="m0 0 10 1 36 12 14 4v2l-9-1-47-15z" fill="#072306"/>
<path transform="translate(1566,419)" d="m0 0 8 1-3 2-11 5h-5l-1 2-9 3-4 2-1 2h-12l3-2 24-10z" fill="#043508"/>
<path transform="translate(1051,1424)" d="m0 0 2 1v1l3 1-10 6-14 8-8 3-6 3 1-3 11-6 8-7z" fill="#710918"/>
<path transform="translate(1707,365)" d="m0 0h5l-4 3-49 20-5 1v-2l9-4 4-2 9-2 4-1v-2h3v-4h7v-2l3-1v2z" fill="#4B0815"/>
<path transform="translate(1111,367)" d="m0 0 2 3-15 6-33 11-5-1 3-2 21-7 15-6z" fill="#043506"/>
<path transform="translate(1601,1106)" d="m0 0 3 1-11 7-11 6-13 8-2-1 9-6 2-2-9 5-2-1 13-8 12-7 2 1h3z" fill="#800A1A"/>
<path transform="translate(1285,535)" d="m0 0h2l-2 4-8 3-1 2h-2v2l-29 12-10 3 2-4 12-4h5v-2l6-3 8-3h4l1-4h2v-2z" fill="#3A0613"/>
<path transform="translate(1111,1389)" d="m0 0 2 1-9 6-1 1 7-4 3 1-24 14-2-1 4-2h-3-2v2l-12 6-2-1 16-10 16-9z" fill="#800A1A"/>
<path transform="translate(1268,1302)" d="m0 0 4 1v11l-2 24-1 43-1 24h-1v-29l1-42 2-30-4-1z" fill="#800A1A"/>
<path transform="translate(854,264)" d="m0 0 1 2-5 3-26 8-12 4-6 1v-3l38-12z" fill="#053507"/>
<path transform="translate(1084,191)" d="m0 0 3 1v2l-25 8-10 3-10 2-3-2 32-10z" fill="#053206"/>
<path transform="translate(698,312)" d="m0 0 5 3v3h-8l-28 9-4-1h2v-2l26-9z" fill="#12280B"/>
<path transform="translate(1186,1347)" d="m0 0 1 2-7 6-17 10-7 2-7 4-2-1 5-3 8-5 4-4 12-5 7-5z" fill="#450615"/>
<path transform="translate(989,228)" d="m0 0 7 1 27 9 14 4 1 3-10-2-29-9-10-4z" fill="#073007"/>
<path transform="translate(535,365)" d="m0 0h6l-1 2-28 9-16 5-4-1 4-3 24-7z" fill="#0E370C"/>
<path transform="translate(969,418)" d="m0 0 1 3-12 5-15 5-11 4h-5v-2l22-8z" fill="#072C07"/>
<path transform="translate(1720,356)" d="m0 0 2 1-3 1v2l-3 1-1 3-13 4-9 3-3-1v2h-7l3-2 24-10z" fill="#023106"/>
<path transform="translate(1207,1333)" d="m0 0 2 1-7 5-6 3 6-1-5 4-12 7-2-1 4-2h-4l-9 6-6 2 4-4 23-13z" fill="#800A1A"/>
<path transform="translate(1810,319)" d="m0 0 4 2-2 3h-2v2l-7 3h-6v2l-4 2-3-1 2-3-1-2z" fill="#032706"/>
<path transform="translate(1427,254)" d="m0 0 4 1-4 3-22 8-9 3h-4l1-3 28-10z" fill="#062907"/>
<path transform="translate(1087,616)" d="m0 0 3 1-2 4-10 2-5 3-14 6h-8l4-3 11-4z" fill="#015207"/>
<path transform="translate(1768,336)" d="m0 0 2 1-2 4-5 1v2l-16 5-3 2-5-1v2h-6l3-2 16-7z" fill="#032E06"/>
<path transform="translate(1071,447)" d="m0 0 9 3 25 9 12 4-2 2-9-2-19-7-15-6z" fill="#073108"/>
<path transform="translate(1285,893)" d="m0 0h1l1 25h1v10l8-2v3 3l-8 4v-4h-4z" fill="#5F0817"/>
<path transform="translate(1496,448)" d="m0 0 3 1v2l-11 5-8 3-9 4-3-1-6 1 2-2 28-11z" fill="#023B06"/>
<path transform="translate(1375,1236)" d="m0 0m-1 1m-1 1m-3 1h3v2l-7 4-4 4-5 3-9 3-7 4-2-1 5-3 9-6 4-4 10-4z" fill="#460615"/>
<path transform="translate(1033,1434)" d="m0 0m-2 1h2l-1 3-8 4-5 4 9-5 2 1-13 8-7 4-4-2 7-6z" fill="#7B0919"/>
<path transform="translate(803,280)" d="m0 0h5l-4 3-6 3-8 2-16 5h-5l3-3z" fill="#082B07"/>
<path transform="translate(1257,1630)" d="m0 0 2 1-20 14-30 20-3-1 45-30z" fill="#500716"/>
<path transform="translate(1704,1044)" d="m0 0m-1 1v3l-4 4-14 8-10 3 4-4h3v-2l7-4 4-4z" fill="#560716"/>
<path transform="translate(1131,1379)" d="m0 0 3 1-8 5-4 4-7 4-7 2-7 4-2-1 5-3 8-5 4-4 12-5z" fill="#450615"/>
<path transform="translate(420,401)" d="m0 0h3v2l-5 3-9 2-3 2-20 6-2 1v-4l20-6 11-4z" fill="#085009"/>
<path transform="translate(1145,592)" d="m0 0h5l1 1h6l-4 3-20 8h-2l1-3 6-2 1-4z" fill="#20250D"/>
<path transform="translate(1680,372)" d="m0 0 4 1-1 3h-3v2l-7 3-15 3-3-1z" fill="#062408"/>
<path transform="translate(1214,564)" d="m0 0 3 1-2 3-5 1-1 3-5 1-8 3h-9l4-3 11-4z" fill="#043807"/>
<path transform="translate(796,349)" d="m0 0 5 1 30 11 2 1v2l-7-1-18-7-8-3-4-1z" fill="#092607"/>
<path transform="translate(869,189)" d="m0 0 10 3 27 9v2l-6-1-33-11z" fill="#063107"/>
<path transform="translate(1529,1156)" d="m0 0h1v9l-1 10-2 2-2 31h-1v-21l3-30z" fill="#5F0817"/>
<path transform="translate(894,626)" d="m0 0 5 1 26 11 11 5 6 2v1h-7l-8-4-7-3-8-4-6-2-9-4z" fill="#390614"/>
<path transform="translate(1259,516)" d="m0 0h6l29 10 1 2h-8l-10-4-16-5z" fill="#0C3E0A"/>
<path transform="translate(1528,436)" d="m0 0h12l-3 2-27 11-3-1h2v-2l14-7z" fill="#3F0612"/>
<path transform="translate(1458,243)" d="m0 0h2l1 3-26 9-4 1-2-3z" fill="#083609"/>
<path transform="translate(1311,524)" d="m0 0 3 1-8 5-2 3-11 3-5 1-1-3 8-4 9-3z" fill="#032805"/>
<path transform="translate(1498,389)" d="m0 0 24 7 13 4-1 2-10-2-20-6-6-2z" fill="#0D4A0C"/>
<path transform="translate(971,227)" d="m0 0 1 2 2 1-24 8-9 2 1-4 20-6z" fill="#092F09"/>
<path transform="translate(1574,1421)" d="m0 0 2 1-4 4-11 7-12 8-11 7-6 4-2-1 10-7 33-22z" fill="#500716"/>
<path transform="translate(1101,612)" d="m0 0 7 1-4 3-15 6-3-1h2l1-4 3-3z" fill="#22190C"/>
<path transform="translate(830,599)" d="m0 0 25 10 11 5 8 3v1h-6l-12-6-12-3-8-5-5-2z" fill="#380614"/>
<path transform="translate(565,266)" d="m0 0 24 8 10 4-4 2-18-7-16-5z" fill="#063407"/>
<path transform="translate(1272,540)" d="m0 0 3 1-1 2h-2v2l-18 6v2h-5l-1-3 14-6z" fill="#013B07"/>
<path transform="translate(1265,314)" d="m0 0 31 10-2 3-29-9z" fill="#0B390A"/>
<path transform="translate(446,442)" d="m0 0 5 1 26 11 12 5 5 2v1h-7l-3-1v-2l-4-1-7-3-9-4-13-5z" fill="#370A14"/>
<path transform="translate(661,325)" d="m0 0 4 1-1 2-16 5-10 3-5-1 2-2z" fill="#0E390B"/>
<path transform="translate(1076,622)" d="m0 0h10l-2 2-10 4-12 5-9 4-3-1 4-1v-2l13-5 9-4z" fill="#5D0817"/>
<path transform="translate(1508,1465)" d="m0 0 1 2-6 4h-2v2l-11 7-10 7-11 7-3-1 17-11 12-8z" fill="#510716"/>
<path transform="translate(1408,484)" d="m0 0 3 1-9 5-2 3-8 2-7 3-3-1v-2l24-10z" fill="#024707"/>
<path transform="translate(908,634)" d="m0 0 7 1 5 3 7 3 6 3 4 3-7-1-21-9z" fill="#000302"/>
<path transform="translate(1568,422)" d="m0 0h7l-4 2-11 5-16 6-4 1 1-3 8-4h5l1-3h5z" fill="#470715"/>
<path transform="translate(1223,302)" d="m0 0 9 2 22 7-1 3-23-7-8-3z" fill="#072306"/>
<path transform="translate(942,401)" d="m0 0 25 8 9 4v1l-9-1-10-4-16-5z" fill="#063507"/>
<path transform="translate(1192,292)" d="m0 0 9 2 22 7-1 3-18-6-14-4z" fill="#092807"/>
<path transform="translate(939,237)" d="m0 0 3 1-3 3-20 6h-4v-2z" fill="#082207"/>
<path transform="translate(1215,1328)" d="m0 0 3 1-5 7-9 5-9 2 4-4 9-5 5-5z" fill="#460615"/>
<path transform="translate(1205,571)" d="m0 0 4 2-29 12h-4v-2l24-10z" fill="#4C0716"/>
<path transform="translate(391,422)" d="m0 0 12 2 3 1v2l5 2 2 4-10-3-11-5z" fill="#000602"/>
<path transform="translate(1041,1773)" d="m0 0 3 1-11 7-15 10-14 9-2-1 10-7 15-10z" fill="#4D0716"/>
<path transform="translate(1502,450)" d="m0 0 3 1-13 6-16 6-4 1 1-3 11-5 14-5z" fill="#4B0715"/>
<path transform="translate(563,356)" d="m0 0 7 1v1l-10 3-11 3-4 2-7-1 4-2z" fill="#075F0A"/>
<path transform="translate(1400,1220)" d="m0 0 2 1-8 6-6 3-14 8-11 6-2-1 17-10z" fill="#800A1A"/>
<path transform="translate(1640,1080)" d="m0 0 2 1-9 6-9 5-20 12-3-1 17-10z" fill="#800A1A"/>
<path transform="translate(1250,1308)" d="m0 0 3 1-1 4-9 5-8 2 4-6z" fill="#580716"/>
<path transform="translate(1317,523)" d="m0 0 8 1-2 2-17 7h-2l2-4 8-5z" fill="#380710"/>
<path transform="translate(1584,413)" d="m0 0m-2 1h5v2l2 1-9 5-2 1v-2l-7 1-1-3 6-2z" fill="#19050A"/>
<path transform="translate(906,201)" d="m0 0 19 6 9 3-1 3-28-9z" fill="#043206"/>
<path transform="translate(1171,163)" d="m0 0 2 1-1 3-19 6h-5v-2l11-4z" fill="#062A06"/>
<path transform="translate(1448,1192)" d="m0 0 2 1-8 6-6 3-14 8-11 6-2-1 17-10z" fill="#800A1A"/>
<path transform="translate(1578,1118)" d="m0 0 2 1-9 6-6 5-7 4h-5l4-4 5-3h3v-3l8-3z" fill="#3A0614"/>
<path transform="translate(182,687)" d="m0 0h3l2 3 6 1 1 2 8 2v3l7 1 1 3-6-1-16-8-5-3z" fill="#000302"/>
<path transform="translate(768,339)" d="m0 0 28 9v3l-11-3-17-6z" fill="#042B06"/>
<path transform="translate(1038,1431)" d="m0 0m-1 1h5l-4 6-14 6-6 3 1-3 11-6z" fill="#680818"/>
<path transform="translate(1492,1168)" d="m0 0m-4 1h4l-2 5-7 4-8 2 4-6z" fill="#510716"/>
<path transform="translate(700,546)" d="m0 0 25 10 13 5-2 2-13-5-7-3-8-2v-2l-5-1-3-2z" fill="#3A0814"/>
<path transform="translate(986,412)" d="m0 0h3l-2 4-1 3h-10l-6 2 1-4 7-2 5-2z" fill="#092308"/>
<path transform="translate(1015,401)" d="m0 0 3 1-3 3-12 4-14 5v-3z" fill="#053206"/>
<path transform="translate(1190,339)" d="m0 0h2l1 3-11 4-10 3-4 1-1-3z" fill="#073B08"/>
<path transform="translate(1390,267)" d="m0 0h2v2l2 1-10 3-13 5-2-1-1-2z" fill="#063908"/>
<path transform="translate(980,1075)" d="m0 0h1l1 13-1 18h-1l-2-17-1-4z"/>
<path transform="translate(1282,932)" d="m0 0h3l-2 4 1 3-6 2h-7l1-4z" fill="#3D0614"/>
<path transform="translate(1425,481)" d="m0 0h5l-4 3-20 8-6 1v-2l12-5 10-4z" fill="#4F0716"/>
<path transform="translate(1419,364)" d="m0 0 25 7 3 2-3 1-26-7-1-2z" fill="#0A3E0A"/>
<path transform="translate(1784,332)" d="m0 0 6 1-3 2-23 10-4-1h3v-2l12-5h3l1-4z" fill="#540716"/>
<path transform="translate(1254,312)" d="m0 0h3v2h2v3l-14 6-6 1v-2l13-6z" fill="#092007"/>
<path transform="translate(1231,560)" d="m0 0 4 2-24 10-2-1 3-3 3-1 2-3 9-2z" fill="#3D0711"/>
<path transform="translate(1287,535)" d="m0 0 5 1 1-1h7l1 7-2-3-2-2-20 8-3-1h2l1-3 8-3z" fill="#560716"/>
<path transform="translate(1394,493)" d="m0 0h6l-4 3-18 7-4 2-3-1h2v-2l6-2 3-3 6-1z" fill="#510716"/>
<path transform="translate(1457,464)" d="m0 0 3 1-9 4-4 4-8 3h-8l4-3 20-8z" fill="#005507"/>
<path transform="translate(314,388)" d="m0 0 5 1 24 10 8 4-3 1-11-5-13-4-4-3-5-2z" fill="#3A0614"/>
<path transform="translate(833,362)" d="m0 0 27 9-3 2-10-3-15-5z" fill="#053006"/>
<path transform="translate(1642,1080)" d="m0 0m-1 1m-1 1m-2 1h2v2h-2l-1 3-10 6-8 2 5-5 9-5z" fill="#400615"/>
<path transform="translate(973,224)" d="m0 0h13l3 3-1 3-3-1h-13z" fill="#061205"/>
<path transform="translate(1365,505)" d="m0 0h6l-4 3-22 9-3-1h2l1-3 9-1v-2z" fill="#570716"/>
<path transform="translate(986,417)" d="m0 0 27 9-1 3-26-9z" fill="#0A2E08"/>
<path transform="translate(703,315)" d="m0 0 13 5 12 4-2 3-24-8z" fill="#063A08"/>
<path transform="translate(1104,264)" d="m0 0 28 8-3 2-11-3-15-4z" fill="#063407"/>
<path transform="translate(1563,1125)" d="m0 0h2v2l-10 5-1 1 2 2-10 6-2-1 3-6z" fill="#660818"/>
<path transform="translate(453,228)" d="m0 0 10 1 16 6-1 3-23-8z" fill="#022E05"/>
<path transform="translate(1e3 651)" d="m0 0 5 1-4 3h-2v2l-10 2v2h-3v-2l-3-1 13-5z" fill="#052D08"/>
<path transform="translate(1237,507)" d="m0 0 9 2 16 6-3 2-11-3-8-4-5-1z" fill="#075909"/>
<path transform="translate(873,258)" d="m0 0 4 1-1 2-20 6-4-1h3v-2z" fill="#092809"/>
<path transform="translate(1680,376)" d="m0 0h5l-4 3-22 9-5 1v-2l9-4 4-2 9-2 4-1z" fill="#580716"/>
<path transform="translate(1007,215)" d="m0 0 1 2-1 2-21 6-4-2z" fill="#093609"/>
<path transform="translate(1164,584)" d="m0 0 3 1-2 1 1 2-9 3v2l-8 1-1-3z" fill="#013A06"/>
<path transform="translate(1704,1336)" d="m0 0 2 1-11 8-15 10-6 2 4-4 11-7 12-8z" fill="#510716"/>
<path transform="translate(1115,464)" d="m0 0 8 1 15 6 1 3-4-1-11-4-9-3z" fill="#0A2A09"/>
<path transform="translate(899,443)" d="m0 0 4 1-1 2-10 3-8 3h-3l1-3z" fill="#0F340C"/>
<path transform="translate(1165,348)" d="m0 0 3 1-2 2-19 7-3-1 4-3z" fill="#0A2809"/>
<path transform="translate(1174,485)" d="m0 0 7 1 16 6v2l-7-1-15-6z" fill="#0C2E0A"/>
<path transform="translate(1013,427)" d="m0 0 9 2 17 7v2l-5-1-21-8z" fill="#082D08"/>
<path transform="translate(969,418)" d="m0 0 1 3-12 5-9 2v-3z" fill="#0F370C"/>
<path transform="translate(1039,393)" d="m0 0 2 1-3 3-15 5-5 1-1-2z" fill="#0A2308"/>
<path transform="translate(513,372)" d="m0 0h2v3l-19 6-4-1 4-3z" fill="#0E3A0B"/>
<path transform="translate(698,312)" d="m0 0 5 3v3h-8l-7 2v-4z" fill="#081F06"/>
<path transform="translate(479,236)" d="m0 0 10 3 14 5 1 3-10-3-13-5-2-1z" fill="#0C2E0A"/>
<path transform="translate(1156,1697)" d="m0 0 2 1-3 3-7 5h-3v2l-5 3h-3v2l-6 3-2-1 23-15z" fill="#580716"/>
<path transform="translate(1605,1401)" d="m0 0 2 1-4 4h-3v2l-16 10-3 2-3-1 17-11z" fill="#540716"/>
<path transform="translate(1456,469)" d="m0 0 3 1-14 6-12 5h-3v-2l9-4 4-2 9-2z" fill="#590717"/>
<path transform="translate(540,258)" d="m0 0 11 3 14 5v1h-7l-16-6-2-1z" fill="#072A07"/>
<path transform="translate(1186,1347)" d="m0 0 1 2-7 6-5 3-8 2 5-5 10-6z" fill="#3D0614"/>
<path transform="translate(1331,516)" d="m0 0 3 1-4 4h-3v2l-6 1h-7l4-3z" fill="#043F07"/>
<path transform="translate(1395,357)" d="m0 0 7 1 17 6-3 2-21-7z" fill="#092B08"/>
<path transform="translate(1500,228)" d="m0 0 1 2h-2v2l-10 4-5 1-1-3 13-5z" fill="#092D08"/>
<path transform="translate(1103,185)" d="m0 0h3v3l-16 5-4-1 4-3z" fill="#092708"/>
<path transform="translate(793,165)" d="m0 0 23 7-4 2-17-5-3-2z" fill="#063407"/>
<path transform="translate(1566,419)" d="m0 0 8 1-3 2-11 5-4-1 4-4z" fill="#002505"/>
<path transform="translate(1806,323)" d="m0 0m-1 1 5 1-3 2-4 2h-6v2l-4 2-3-1 2-3-1-2 5-1 8 1z" fill="#30110E"/>
<path transform="translate(1814,317)" d="m0 0h7l3 1v11h-1v-9l-8 3-3 1v-4-2z" fill="#3F0D13"/>
<path transform="translate(1028,640)" d="m0 0 3 1-8 4-3 3-12 3-3-1z" fill="#015708"/>
<path transform="translate(762,492)" d="m0 0h5l-1 2-17 6-5 2 2-4z" fill="#103E0C"/>
<path transform="translate(1496,448)" d="m0 0 3 1v2l-11 5h-9l3-2z" fill="#004307"/>
<path transform="translate(1662,382)" d="m0 0 1 2-9 3v3l-6 3-4-1h3l1-3h4l-1-2-5 1 4-3z" fill="#21230C"/>
<path transform="translate(584,349)" d="m0 0 3 1 1 2-16 5h-6l1-2z" fill="#0D450B"/>
<path transform="translate(1037,243)" d="m0 0 10 2 14 5v1h-7l-16-6z" fill="#082606"/>
<path transform="translate(995,1076)" d="m0 0 3 1-3 4-11 5-2 2v-7h7v-2z" fill="#380614"/>
<path transform="translate(1071,447)" d="m0 0 9 3 13 5-1 3-20-8z" fill="#0A3D0A"/>
<path transform="translate(767,291)" d="m0 0 3 1 1 2-16 5-3-1v-2z" fill="#043806"/>
<path transform="translate(1366,276)" d="m0 0 4 1-5 3-14 5h-3v-2z" fill="#0A2008"/>
<path transform="translate(1642,1377)" d="m0 0 2 1-4 4h-3v2l-11 7-5 3-3-1 17-11z" fill="#550716"/>
<path transform="translate(785,484)" d="m0 0 5 1v1l-10 3-13 4-2-2z" fill="#0A520A"/>
<path transform="translate(491,379)" d="m0 0 2 1 1 2-9 2-3 2-9 1-2-2z" fill="#056F09"/>
<path transform="translate(1262,1618)" d="m0 0h1v7l5-2 4-2-4 5-8 3-2 1 1-10z" fill="#780919"/>
<path transform="translate(1647,1076)" d="m0 0 3 1v1l2 1-11 7-3-1h2l2-6z" fill="#5B0817"/>
<path transform="translate(1376,350)" d="m0 0 11 3 9 3-2 3-18-6z" fill="#053C08"/>
<path transform="translate(1755,345)" d="m0 0h5l-4 3-14 6h-3v-4h5l8-4z" fill="#4B0714"/>
<path transform="translate(748,333)" d="m0 0h6l14 6v2l-12-3-8-4z" fill="#092908"/>
<path transform="translate(671,305)" d="m0 0 7 1 14 5-4 2-17-6z" fill="#082606"/>
<path transform="translate(1147,171)" d="m0 0 1 2 2 1-17 5-2-1v-2z" fill="#053A09"/>
<path transform="translate(1213,150)" d="m0 0 5 1-1 2-13 4h-4v-2z" fill="#0D250A"/>
<path transform="translate(1078,379)" d="m0 0h2l1 3-16 5-5-1 3-2z" fill="#063C07"/>
<path transform="translate(1275,308)" d="m0 0 3 1-3 2-7 3-3 1v3l-6-1 1-4 9-3z" fill="#084E0A"/>
<path transform="translate(1346,283)" d="m0 0h2l1 3-10 3-6 2-5-1 3-2z" fill="#0A3A09"/>
<path transform="translate(891,252)" d="m0 0h2l1 3-16 5-3-3z" fill="#063908"/>
<path transform="translate(773,160)" d="m0 0 9 2 11 3v2l-9-1-12-4z" fill="#0C1D08"/>
<path transform="translate(980,1458)" d="m0 0 1 4 3 1-1 4h-2l-1 4-4-5z" fill="#050002"/>
<path transform="translate(1432,1203)" d="m0 0 3 1-5 5-8 5-3-1h2l2-4z" fill="#490615"/>
<path transform="translate(1254,552)" d="m0 0 3 1-20 8h-2l2-4z" fill="#540716"/>
<path transform="translate(1293,302)" d="m0 0h5l-3 3-10 3-2 1h-6l1-2z" fill="#10260B"/>
<path transform="translate(957,217)" d="m0 0 12 3 8 3v1h-8l-13-4z" fill="#033A07"/>
<path transform="translate(1116,604)" d="m0 0 3 1-9 5 1 2-5 1h-9l2-2 15-6z" fill="#045209"/>
<path transform="translate(743,499)" d="m0 0 2 1-5 3-6 3-10 2-1-2z" fill="#08630A"/>
<path transform="translate(1111,1389)" d="m0 0 2 1-9 6-4 2-4 4-4 1 3-5z" fill="#680818"/>
<path transform="translate(1048,632)" d="m0 0 3 1-4 2 1 2-8 3h-9l3-2z" fill="#004E07"/>
<path transform="translate(1671,376)" d="m0 0 3 1-3 4-9 2-7 1 4-3z" fill="#005407"/>
<path transform="translate(654,298)" d="m0 0 18 6-2 3-16-6z" fill="#042F06"/>
<path transform="translate(1125,1717)" d="m0 0 2 1-4 4h-3v2l-13 8-3-1 14-9z" fill="#550716"/>
<path transform="translate(1441,1509)" d="m0 0h2l-1 3-3 2h-3v2l-11 7-5 1 3-3 17-11z" fill="#550716"/>
<path transform="translate(1124,604)" d="m0 0h7l-3 2-16 7-4-1h3v-2l7-1v-2z" fill="#570716"/>
<path transform="translate(1148,592)" d="m0 0 3 1h6l-4 3-12 5-3-1 6-2v-4z" fill="#510815"/>
<path transform="translate(857,372)" d="m0 0 8 1 12 5v2l-9-2-11-5z" fill="#0C2A0A"/>
<path transform="translate(1086,259)" d="m0 0 10 2 8 3v2l-7-1-11-4z" fill="#092107"/>
<path transform="translate(989,228)" d="m0 0 7 1 10 4v2l-7-1-10-4z" fill="#11210B"/>
<path transform="translate(1007,652)" d="m0 0h6l-2 2-17 7h-3v-2l5-2h5v-2z" fill="#560716"/>
<path transform="translate(1234,557)" d="m0 0h2l-1 4-6 1-5 2h-7l4-3z" fill="#062D09"/>
<path transform="translate(1220,501)" d="m0 0 5 1 12 4v2l-8-1-10-4z" fill="#09350A"/>
<path transform="translate(1326,290)" d="m0 0h5l-3 3-12 4h-2l1-3z" fill="#072907"/>
<path transform="translate(1440,249)" d="m0 0 5 1-2 2-10 4-4-2 3-2z" fill="#053208"/>
<path transform="translate(1207,1333)" d="m0 0 2 1-7 5-6 3-4 4-4 1 3-5z" fill="#660818"/>
<path transform="translate(1636,755)" d="m0 0m-2 1h2l-1 3-12 5-8 4-2-1 19-10z" fill="#800A1A"/>
<path transform="translate(1481,384)" d="m0 0 9 2 8 3v2l-7-1-10-4z" fill="#112F0C"/>
<path transform="translate(1359,345)" d="m0 0 6 1 10 3 1 3-6-1-12-4z" fill="#0D2F0B"/>
<path transform="translate(1238,322)" d="m0 0 2 3-14 5-2-1-1-2z" fill="#0D3F0B"/>
<path transform="translate(637,293)" d="m0 0h6l11 5v2l-10-2-7-4z" fill="#092508"/>
<path transform="translate(523,251)" d="m0 0 17 6-1 3-16-6z" fill="#073A09"/>
<path transform="translate(1476,1176)" d="m0 0 2 1-1 2 4-1-3 3-8 5-3-1h2l2-6z" fill="#630817"/>
<path transform="translate(1663,1068)" d="m0 0m-1 1m-1 1m-3 1h3v3l-7 4-6 1 3-4z" fill="#3C0614"/>
<path transform="translate(1379,496)" d="m0 0 3 1-3 4-6 1v2l-5 1v-3l3-1 1-2z" fill="#073009"/>
<path transform="translate(1525,436)" d="m0 0 3 1-14 8-4 1v-3z" fill="#014908"/>
<path transform="translate(1700,364)" d="m0 0 3 1-4 1v2h-2v2l-4 1-3-1v2h-7l3-2z" fill="#005507"/>
<path transform="translate(621,286)" d="m0 0 18 6-3 2-15-5z" fill="#063407"/>
<path transform="translate(1037,206)" d="m0 0h5l-3 3-10 3h-4v-2z" fill="#091F07"/>
<path transform="translate(889,196)" d="m0 0 9 2 8 3v2l-6-1-10-3z" fill="#082107"/>
<path transform="translate(733,148)" d="m0 0 10 1 9 3-2 3-15-5z" fill="#072906"/>
<path transform="translate(1423,1208)" d="m0 0m-1 1m-1 1m-3 1h3v2h-2l-1 3-3 2-7 1 3-4z" fill="#380614"/>
<path transform="translate(1128,601)" d="m0 0v3l-10 3v2l-9 2 4-4 9-4z" fill="#040807"/>
<path transform="translate(1334,516)" d="m0 0m-2 1h10l-4 3-10 4-3-1h2v-2h3z" fill="#440813"/>
<path transform="translate(829,468)" d="m0 0h4v2l-14 5h-3v-2z" fill="#0E2F0C"/>
<path transform="translate(1632,392)" d="m0 0 3 1-8 4-3 3h-9l4-3 11-4z" fill="#005D08"/>
<path transform="translate(1638,393)" d="m0 0h6l-4 3-12 5-4-1h3v-2z" fill="#550716"/>
<path transform="translate(469,386)" d="m0 0h4l-1 3-8 2-8 1 3-3z" fill="#0C460B"/>
<path transform="translate(581,273)" d="m0 0h6l12 5-4 2-13-5z" fill="#0E320B"/>
<path transform="translate(1138,471)" d="m0 0 17 6v3l-9-3-7-3z" fill="#0A3F0A"/>
<path transform="translate(1534,401)" d="m0 0 8 1 8 3v2l-7-1-9-3z" fill="#10310C"/>
<path transform="translate(1519,396)" d="m0 0 10 2 6 2-1 2-10-2-8-2z" fill="#066C09"/>
<path transform="translate(819,275)" d="m0 0 1 2 2 1-10 3-6 1v-3z" fill="#064408"/>
<path transform="translate(1259,516)" d="m0 0h6l11 4-4 2-11-3z" fill="#063A09"/>
<path transform="translate(1603,404)" d="m0 0 3 1-3 1v2l-5 1-1 3-8-1 4-3z" fill="#015108"/>
<path transform="translate(1642,390)" d="m0 0m-4 1h4v2l-13 5h-2v2l-3-1h2l1-3z" fill="#040706"/>
<path transform="translate(1092,374)" d="m0 0 4 1-2 2-11 4h-3v-2z" fill="#0A2408"/>
<path transform="translate(1123,363)" d="m0 0h6l-4 3-10 3h-3v-2z" fill="#092707"/>
<path transform="translate(852,185)" d="m0 0 11 2 6 2-4 2-14-4z" fill="#072808"/>
<path transform="translate(1286,931)" d="m0 0 3 1-2 10-2 1-1-6-3-1z" fill="#13020A"/>
<path transform="translate(1076,622)" d="m0 0h10l-2 2-15 5-2-1 9-4z" fill="#440615"/>
<path transform="translate(1087,616)" d="m0 0 3 1-2 4-10 2v-2h2v-2z" fill="#063408"/>
<path transform="translate(879,450)" d="m0 0h2v3l-11 4-4-2z" fill="#074109"/>
<path transform="translate(1343,340)" d="m0 0 15 4v3l-16-4z" fill="#083909"/>
<path transform="translate(718,307)" d="m0 0 1 3-13 4h-5l1-2 13-4z" fill="#0A4209"/>
<path transform="translate(1320,1268)" d="m0 0m-1 1v3l-1 2-7 3-6 2 5-5z" fill="#2A0513"/>
<path transform="translate(1067,626)" d="m0 0v3l-8 3h-8l4-3z" fill="#004108"/>
<path transform="translate(612,510)" d="m0 0 18 7-2 2-9-3-7-4z" fill="#340514"/>
<path transform="translate(1768,336)" d="m0 0 2 1-2 4-7 2h-6l4-3z" fill="#004405"/>
<path transform="translate(1295,325)" d="m0 0 7 1 8 3v2l-6-1-9-3z" fill="#0B2608"/>
<path transform="translate(1239,307)" d="m0 0 9 2 6 2-1 3-13-4z" fill="#063406"/>
<path transform="translate(1510,1456)" d="m0 0h1v6l5-1-1 2-6 2-2 1v-8z" fill="#7A0919"/>
<path transform="translate(1352,1248)" d="m0 0 2 1-10 7-8 4-2-1 15-9z" fill="#800A1A"/>
<path transform="translate(1418,482)" d="m0 0m-4 1 4 1-15 7-2-1 8-5z" fill="#020705"/>
<path transform="translate(1502,450)" d="m0 0 3 1-13 6h-4v-2l10-4z" fill="#5B0817"/>
<path transform="translate(406,426)" d="m0 0 5 1 15 6v1h-7l-8-4z" fill="#3C0614"/>
<path transform="translate(1618,401)" d="m0 0h6l-4 3-10 4h-2l1-3z" fill="#510716"/>
<path transform="translate(927,397)" d="m0 0 7 1 8 3v2l-6-1-9-4z" fill="#072B07"/>
<path transform="translate(1733,354)" d="m0 0h6l-2 2-12 5-3-1h2l1-3z" fill="#590717"/>
<path transform="translate(796,349)" d="m0 0 5 1 9 3v3l-10-3-4-1z" fill="#072C07"/>
<path transform="translate(1329,336)" d="m0 0 9 2 5 2v2l-10-2-5-2z" fill="#0A2808"/>
<path transform="translate(1176,287)" d="m0 0 15 4 1 2-3 1-13-4z" fill="#063106"/>
<path transform="translate(1427,254)" d="m0 0 4 1-4 3-5 2h-3v-3z" fill="#091C07"/>
<path transform="translate(906,201)" d="m0 0 14 4 1 2h-7l-9-3z" fill="#052B06"/>
<path transform="translate(1243,1312)" d="m0 0 3 1-3 5-8 2 4-6z" fill="#450615"/>
<path transform="translate(1585,1116)" d="m0 0 2 1-18 11-2-1 9-6 7-4z" fill="#800A1A"/>
<path transform="translate(1090,616)" d="m0 0 9 1-3 2-7 3-3-1h2l1-4z" fill="#3E0811"/>
<path transform="translate(1252,548)" d="m0 0h8l-4 3h-2v2h-5l-1-3z" fill="#072507"/>
<path transform="translate(544,482)" d="m0 0 18 7v1h-6l-12-6z" fill="#370614"/>
<path transform="translate(803,280)" d="m0 0h5l-4 3-4 2h-8l2-2z" fill="#0E260A"/>
<path transform="translate(1129,273)" d="m0 0 9 1 6 2-4 2-11-3z" fill="#052D06"/>
<path transform="translate(1159,1361)" d="m0 0 2 1-9 6-8 4-2-1 15-9z" fill="#800A1A"/>
<path transform="translate(1317,523)" d="m0 0 8 1-2 2-3 1h-8l2-3z" fill="#23070C"/>
<path transform="translate(630,518)" d="m0 0 5 1 13 5 1 2h-5l-14-7z" fill="#390A14"/>
<path transform="translate(1382,496)" d="m0 0m-1 1 3 1v3l-10 4-3-1h2v-2l6-2z" fill="#460713"/>
<path transform="translate(1520,441)" d="m0 0m-2 1h2v3l-10 4-3-1h2v-2z" fill="#510716"/>
<path transform="translate(1198,571)" d="m0 0 2 1-4 4h-9l4-3z" fill="#004B07"/>
<path transform="translate(1221,328)" d="m0 0 4 1-8 4-5 1v-3z" fill="#0C2D0B"/>
<path transform="translate(1375,1236)" d="m0 0m-1 1m-1 1m-3 1h3v2l-11 6-2-1 3-3z" fill="#250513"/>
<path transform="translate(1471,1180)" d="m0 0m-1 1m-1 1m-3 1h3v2l-11 6-2-1 3-3z" fill="#250513"/>
<path transform="translate(840,464)" d="m0 0 6 1v1l-10 3-3 1v-2l-2-1z" fill="#0B4E0B"/>
<path transform="translate(630,335)" d="m0 0 5 1-3 2-10 2 1-3z" fill="#102A0C"/>
<path transform="translate(1784,332)" d="m0 0 6 1-3 2-4 2h-5l1-4z" fill="#31050E"/>
<path transform="translate(1265,314)" d="m0 0 9 3 1 3-10-2z" fill="#0B1F0A"/>
<path transform="translate(726,304)" d="m0 0h6l-1 2-8 3h-4v-2z" fill="#0D2C09"/>
<path transform="translate(790,284)" d="m0 0 8 1v1l-8 2-7 1v-2z" fill="#043607"/>
<path transform="translate(453,228)" d="m0 0 10 1 4 2v2l-10-2z" fill="#092407"/>
<path transform="translate(1007,215)" d="m0 0 1 2-1 2-11 3 2-4z" fill="#043506"/>
<path transform="translate(1755,1015)" d="m0 0 2 3-2 3h-4v-2l-5 1 1-2z" fill="#6A0818"/>
<path transform="translate(1031,640)" d="m0 0h5l-4 3-9 3v2l-3-1h2l1-3z" fill="#080507"/>
<path transform="translate(478,456)" d="m0 0 5 1 11 4v1h-7l-3-1v-2l-4-1z" fill="#340514"/>
<path transform="translate(1575,413)" d="m0 0 4 3-4 3h-7l3-4h4z" fill="#0F8916"/>
<path transform="translate(1248,318)" d="m0 0h3l-1 3-8 3h-3v-2z" fill="#172B0F"/>
<path transform="translate(1131,1379)" d="m0 0 3 1-13 8-2-1 5-4z" fill="#250513"/>
<path transform="translate(1619,1094)" d="m0 0m4 0 2 1-10 6h-2l2-4 4-2z" fill="#570716"/>
<path transform="translate(1284,940)" d="m0 0 3 2v9l-3 1z" fill="#410615"/>
<path transform="translate(1285,535)" d="m0 0h2l-2 4-1 1h-9l3-2z" fill="#004E08"/>
<path transform="translate(924,434)" d="m0 0 6 1-4 2-8 2-2-2z" fill="#0B3409"/>
<path transform="translate(392,411)" d="m0 0h3l-1 3-10 3v-4z" fill="#0B3D0A"/>
<path transform="translate(961,409)" d="m0 0h6l9 4v1l-9-1-6-3z" fill="#0C3309"/>
<path transform="translate(950,234)" d="m0 0 2 3-11 3 1-4z" fill="#063407"/>
<path transform="translate(1030,1438)" d="m0 0 2 1-9 6-5 2 1-3z" fill="#250513"/>
<path transform="translate(1686,1055)" d="m0 0 2 1-3 4-10 3 4-4h3v-2z" fill="#320514"/>
<path transform="translate(1205,571)" d="m0 0 4 2-9 4h-4v-2z" fill="#550716"/>
<path transform="translate(720,507)" d="m0 0h4v2l-7 3h-5l3-3z" fill="#11370C"/>
<path transform="translate(1555,424)" d="m0 0 3 1-4 4h-9l2-2z" fill="#024D07"/>
<path transform="translate(1568,422)" d="m0 0h7l-4 2-9 4h-2l1-3z" fill="#550716"/>
<path transform="translate(255,364)" d="m0 0 10 3 5 2v1h-7l-8-5z" fill="#350514"/>
<path transform="translate(825,273)" d="m0 0h8l-2 2-7 2h-4v-2z" fill="#071F07"/>
<path transform="translate(1399,264)" d="m0 0 4 1-2 2-5 2h-4l1-3z" fill="#0B2309"/>
<path transform="translate(1049,202)" d="m0 0 1 2 2 1-10 2-3-2z" fill="#054807"/>
<path transform="translate(1058,199)" d="m0 0 4 1-8 4h-4l1-3z" fill="#092C07"/>
<path transform="translate(1218,1656)" d="m0 0 3 1-12 8-3-1z" fill="#4D0716"/>
<path transform="translate(1033,1434)" d="m0 0m-2 1h2l-1 3-8 4-5 2 4-4z" fill="#800A1A"/>
<path transform="translate(1522,1149)" d="m0 0 2 1-6 5-1 3-4-1 2-4z" fill="#5E0817"/>
<path transform="translate(1e3 651)" d="m0 0 5 1-4 3-9 1 4-3z" fill="#004806"/>
<path transform="translate(878,620)" d="m0 0 5 1 11 4v1h-6l-10-5z" fill="#390614"/>
<path transform="translate(1386,493)" d="m0 0h5l-1 3-5 2-3-1v-2z" fill="#023007"/>
<path transform="translate(986,417)" d="m0 0 13 4-4 2-9-3z" fill="#084209"/>
<path transform="translate(1615,400)" d="m0 0h9v1l-8 2-4 2h-3v-2z" fill="#050405"/>
<path transform="translate(432,398)" d="m0 0 4 1-9 4h-4v-2z" fill="#13250C"/>
<path transform="translate(1690,371)" d="m0 0 1 2-3 3h-5v-4z" fill="#27040B"/>
<path transform="translate(786,345)" d="m0 0 10 3v3l-11-3z" fill="#023605"/>
<path transform="translate(1062,1419)" d="m0 0m-2 1h2v2l-4 4-7 1 4-4z" fill="#2C0513"/>
<path transform="translate(1590,1111)" d="m0 0 2 1-3 4-9 2 3-3h3v-2z" fill="#330514"/>
<path transform="translate(1051,632)" d="m0 0h5l-2 1v2l-6 2-3-2z" fill="#0E0509"/>
<path transform="translate(1231,560)" d="m0 0 4 2-10 4h-2l1-3z" fill="#4F0716"/>
<path transform="translate(1262,544)" d="m0 0 4 1v2l-2 1h-9l3-2z" fill="#004B07"/>
<path transform="translate(1293,531)" d="m0 0 3 1-4 5-4-1-1-2z" fill="#023408"/>
<path transform="translate(1165,482)" d="m0 0 8 1 3 2-1 2-10-3z" fill="#044907"/>
<path transform="translate(1027,432)" d="m0 0 10 3 2 1v2l-5-1-7-3z" fill="#13270D"/>
<path transform="translate(388,419)" d="m0 0 6 1 9 4-3 1-10-3v-2z" fill="#310A13"/>
<path transform="translate(453,391)" d="m0 0 5 1-3 2-9 2v-3z" fill="#08580A"/>
<path transform="translate(833,362)" d="m0 0 10 3-1 3-10-3z" fill="#043205"/>
<path transform="translate(545,362)" d="m0 0h5l-2 3-7 1-3-2z" fill="#0C4E0B"/>
<path transform="translate(1198,336)" d="m0 0 4 1-4 3-6 1 1-3z" fill="#111C0A"/>
<path transform="translate(639,332)" d="m0 0 7 1v1l-8 2-5-1 2-2z" fill="#084E0A"/>
<path transform="translate(167,327)" d="m0 0 16 6-4 1-9-3-3-2z" fill="#3D0614"/>
<path transform="translate(1213,298)" d="m0 0 10 3-1 3-10-3z" fill="#073306"/>
<path transform="translate(1076,255)" d="m0 0 10 3-1 3-9-3z" fill="#082E07"/>
<path transform="translate(913,245)" d="m0 0h2v2l2 1-10 2v-3z" fill="#0B2F09"/>
</svg>